<mxfile host="app.diagrams.net" agent="Mozilla/5.0 (Windows NT 10.0; Win64; x64) AppleWebKit/537.36 (KHTML, like Gecko) Chrome/130.0.0.0 Safari/537.36" version="24.8.4">
  <diagram name="Sayfa -1" id="YvjR6DWuEim0q_vfSmWv">
    <mxGraphModel dx="1050" dy="653" grid="1" gridSize="10" guides="1" tooltips="1" connect="1" arrows="1" fold="1" page="1" pageScale="1" pageWidth="827" pageHeight="1169" math="0" shadow="0">
      <root>
        <mxCell id="0" />
        <mxCell id="1" parent="0" />
        <mxCell id="VStNra3xH52tGC3e-W4a-1" style="edgeStyle=orthogonalEdgeStyle;rounded=0;orthogonalLoop=1;jettySize=auto;html=1;entryX=0.5;entryY=0;entryDx=0;entryDy=0;" edge="1" parent="1" source="VStNra3xH52tGC3e-W4a-2" target="VStNra3xH52tGC3e-W4a-3">
          <mxGeometry relative="1" as="geometry" />
        </mxCell>
        <mxCell id="VStNra3xH52tGC3e-W4a-2" value="START" style="ellipse;whiteSpace=wrap;html=1;" vertex="1" parent="1">
          <mxGeometry x="140" y="30" width="120" height="80" as="geometry" />
        </mxCell>
        <mxCell id="VStNra3xH52tGC3e-W4a-3" value="&#39;x1, y1, x2, y2, x3, y3 olmak uzere uc noktanın koordinatini giriniz&#39;" style="shape=document;whiteSpace=wrap;html=1;boundedLbl=1;" vertex="1" parent="1">
          <mxGeometry x="140" y="140" width="120" height="80" as="geometry" />
        </mxCell>
        <mxCell id="VStNra3xH52tGC3e-W4a-4" value="" style="edgeStyle=orthogonalEdgeStyle;rounded=0;orthogonalLoop=1;jettySize=auto;html=1;" edge="1" parent="1" source="VStNra3xH52tGC3e-W4a-5" target="VStNra3xH52tGC3e-W4a-8">
          <mxGeometry relative="1" as="geometry" />
        </mxCell>
        <mxCell id="VStNra3xH52tGC3e-W4a-5" value="x1, y1, x2, y2, x3, y3" style="shape=card;whiteSpace=wrap;html=1;" vertex="1" parent="1">
          <mxGeometry x="140" y="240" width="120" height="70" as="geometry" />
        </mxCell>
        <mxCell id="VStNra3xH52tGC3e-W4a-6" style="edgeStyle=orthogonalEdgeStyle;rounded=0;orthogonalLoop=1;jettySize=auto;html=1;entryX=0.5;entryY=0;entryDx=0;entryDy=0;entryPerimeter=0;exitX=0.503;exitY=0.873;exitDx=0;exitDy=0;exitPerimeter=0;" edge="1" parent="1" source="VStNra3xH52tGC3e-W4a-3" target="VStNra3xH52tGC3e-W4a-5">
          <mxGeometry relative="1" as="geometry" />
        </mxCell>
        <mxCell id="VStNra3xH52tGC3e-W4a-7" value="" style="edgeStyle=orthogonalEdgeStyle;rounded=0;orthogonalLoop=1;jettySize=auto;html=1;" edge="1" parent="1" source="VStNra3xH52tGC3e-W4a-8" target="VStNra3xH52tGC3e-W4a-11">
          <mxGeometry relative="1" as="geometry" />
        </mxCell>
        <mxCell id="VStNra3xH52tGC3e-W4a-8" value="&lt;div&gt;ABkare = (x2-x1)*(&lt;span style=&quot;background-color: initial;&quot;&gt;x2-x1) + (y&lt;/span&gt;&lt;span style=&quot;background-color: initial;&quot;&gt;2-y1)*(y&lt;/span&gt;&lt;span style=&quot;background-color: initial;&quot;&gt;2-y1)&lt;/span&gt;&lt;/div&gt;&lt;div&gt;&lt;span style=&quot;background-color: initial;&quot;&gt;ACkare =&amp;nbsp;&lt;/span&gt;&lt;span style=&quot;background-color: initial;&quot;&gt;(x3-x1)*(&lt;/span&gt;&lt;span style=&quot;background-color: initial;&quot;&gt;x3-x1) + (y3&lt;/span&gt;&lt;span style=&quot;background-color: initial;&quot;&gt;-y1)*(y3&lt;/span&gt;&lt;span style=&quot;background-color: initial;&quot;&gt;-y1)&lt;/span&gt;&lt;/div&gt;&lt;div&gt;&lt;span style=&quot;background-color: initial;&quot;&gt;BCkare = &lt;/span&gt;&lt;span style=&quot;background-color: initial;&quot;&gt;(x3-x2)*(&lt;/span&gt;&lt;span style=&quot;background-color: initial;&quot;&gt;x3-x2) + (y3-y2)*(y3-y2)&lt;/span&gt;&lt;/div&gt;" style="rounded=0;whiteSpace=wrap;html=1;" vertex="1" parent="1">
          <mxGeometry x="55" y="340" width="290" height="60" as="geometry" />
        </mxCell>
        <mxCell id="VStNra3xH52tGC3e-W4a-9" style="edgeStyle=orthogonalEdgeStyle;rounded=0;orthogonalLoop=1;jettySize=auto;html=1;exitX=1;exitY=0.5;exitDx=0;exitDy=0;" edge="1" parent="1" source="VStNra3xH52tGC3e-W4a-11">
          <mxGeometry relative="1" as="geometry">
            <mxPoint x="340" y="530" as="targetPoint" />
          </mxGeometry>
        </mxCell>
        <mxCell id="VStNra3xH52tGC3e-W4a-10" style="edgeStyle=orthogonalEdgeStyle;rounded=0;orthogonalLoop=1;jettySize=auto;html=1;" edge="1" parent="1" source="VStNra3xH52tGC3e-W4a-11">
          <mxGeometry relative="1" as="geometry">
            <mxPoint x="70" y="530" as="targetPoint" />
          </mxGeometry>
        </mxCell>
        <mxCell id="VStNra3xH52tGC3e-W4a-11" value="ABkare = ACkare + BCkare OR&lt;div&gt;BCkare = ACkare + ABkare OR&lt;/div&gt;&lt;div&gt;ACkare = ABkare + BCkare&lt;/div&gt;" style="shape=hexagon;perimeter=hexagonPerimeter2;whiteSpace=wrap;html=1;fixedSize=1;" vertex="1" parent="1">
          <mxGeometry x="100" y="430" width="200" height="90" as="geometry" />
        </mxCell>
        <mxCell id="VStNra3xH52tGC3e-W4a-12" value="Not: AB, AC, BC hipotenüs hesabı için&lt;div&gt;zaten karesini alacağımızdan koordinat&amp;nbsp;&lt;/div&gt;&lt;div&gt;hesabında karekök işlemini yaptırmadım&lt;br&gt;&lt;div&gt;&lt;br&gt;&lt;/div&gt;&lt;/div&gt;" style="text;html=1;align=center;verticalAlign=middle;resizable=0;points=[];autosize=1;strokeColor=none;fillColor=none;" vertex="1" parent="1">
          <mxGeometry x="400" y="340" width="240" height="70" as="geometry" />
        </mxCell>
        <mxCell id="VStNra3xH52tGC3e-W4a-13" value="T" style="text;html=1;align=center;verticalAlign=middle;resizable=0;points=[];autosize=1;strokeColor=none;fillColor=none;" vertex="1" parent="1">
          <mxGeometry x="285" y="438" width="30" height="30" as="geometry" />
        </mxCell>
        <mxCell id="VStNra3xH52tGC3e-W4a-14" value="F" style="text;html=1;align=center;verticalAlign=middle;resizable=0;points=[];autosize=1;strokeColor=none;fillColor=none;" vertex="1" parent="1">
          <mxGeometry x="85" y="438" width="30" height="30" as="geometry" />
        </mxCell>
        <mxCell id="VStNra3xH52tGC3e-W4a-15" style="edgeStyle=orthogonalEdgeStyle;rounded=0;orthogonalLoop=1;jettySize=auto;html=1;exitX=0.535;exitY=0.838;exitDx=0;exitDy=0;exitPerimeter=0;" edge="1" parent="1" source="VStNra3xH52tGC3e-W4a-16">
          <mxGeometry relative="1" as="geometry">
            <mxPoint x="200" y="710" as="targetPoint" />
            <Array as="points">
              <mxPoint x="349" y="650" />
              <mxPoint x="200" y="650" />
              <mxPoint x="200" y="700" />
            </Array>
          </mxGeometry>
        </mxCell>
        <mxCell id="VStNra3xH52tGC3e-W4a-16" value="&#39;dik ucgen&#39;" style="shape=document;whiteSpace=wrap;html=1;boundedLbl=1;" vertex="1" parent="1">
          <mxGeometry x="285" y="530" width="120" height="80" as="geometry" />
        </mxCell>
        <mxCell id="VStNra3xH52tGC3e-W4a-17" style="edgeStyle=orthogonalEdgeStyle;rounded=0;orthogonalLoop=1;jettySize=auto;html=1;exitX=0.467;exitY=0.908;exitDx=0;exitDy=0;exitPerimeter=0;" edge="1" parent="1" source="VStNra3xH52tGC3e-W4a-18">
          <mxGeometry relative="1" as="geometry">
            <mxPoint x="200" y="710" as="targetPoint" />
            <mxPoint x="110" y="610" as="sourcePoint" />
            <Array as="points">
              <mxPoint x="66" y="650" />
              <mxPoint x="200" y="650" />
              <mxPoint x="200" y="710" />
            </Array>
          </mxGeometry>
        </mxCell>
        <mxCell id="VStNra3xH52tGC3e-W4a-18" value="&#39;dik ucgen degil&#39;" style="shape=document;whiteSpace=wrap;html=1;boundedLbl=1;" vertex="1" parent="1">
          <mxGeometry x="10" y="530" width="120" height="80" as="geometry" />
        </mxCell>
        <mxCell id="VStNra3xH52tGC3e-W4a-19" value="STOP" style="ellipse;whiteSpace=wrap;html=1;" vertex="1" parent="1">
          <mxGeometry x="140" y="710" width="120" height="80" as="geometry" />
        </mxCell>
        <mxCell id="VStNra3xH52tGC3e-W4a-20" value="ANALİZ-1:&lt;span style=&quot;white-space: pre;&quot;&gt;&#x9;&lt;/span&gt;x1&lt;span style=&quot;white-space: pre;&quot;&gt;&#x9;&lt;/span&gt;y1&lt;span style=&quot;white-space: pre;&quot;&gt;&#x9;&lt;/span&gt;x2&lt;span style=&quot;white-space: pre;&quot;&gt;&#x9;&lt;/span&gt;y2&lt;span style=&quot;white-space: pre;&quot;&gt;&#x9;&lt;/span&gt;x3&lt;span style=&quot;white-space: pre;&quot;&gt;&#x9;&lt;/span&gt;y3" style="text;html=1;align=center;verticalAlign=middle;resizable=0;points=[];autosize=1;strokeColor=none;fillColor=none;" vertex="1" parent="1">
          <mxGeometry x="495" y="440" width="250" height="30" as="geometry" />
        </mxCell>
        <mxCell id="VStNra3xH52tGC3e-W4a-21" value="0&lt;span style=&quot;white-space: pre;&quot;&gt;&#x9;&lt;/span&gt;5&lt;span style=&quot;white-space: pre;&quot;&gt;&#x9;&lt;/span&gt;0&lt;span style=&quot;white-space: pre;&quot;&gt;&#x9;&lt;/span&gt;3&lt;span style=&quot;white-space: pre;&quot;&gt;&#x9;&lt;/span&gt;7&lt;span style=&quot;white-space: pre;&quot;&gt;&#x9;&lt;/span&gt;0" style="text;html=1;align=center;verticalAlign=middle;resizable=0;points=[];autosize=1;strokeColor=none;fillColor=none;" vertex="1" parent="1">
          <mxGeometry x="580" y="470" width="160" height="30" as="geometry" />
        </mxCell>
        <mxCell id="VStNra3xH52tGC3e-W4a-22" value="ABkare: 4&lt;div&gt;BCkare: 58&lt;/div&gt;&lt;div&gt;ACkare: 74&lt;/div&gt;" style="text;html=1;align=center;verticalAlign=middle;resizable=0;points=[];autosize=1;strokeColor=none;fillColor=none;" vertex="1" parent="1">
          <mxGeometry x="490" y="505" width="80" height="60" as="geometry" />
        </mxCell>
        <mxCell id="VStNra3xH52tGC3e-W4a-23" value="74 = 58 + 4&lt;div&gt;58 = 74 + 4&lt;/div&gt;&lt;div&gt;4 = 74 + 58&lt;br&gt;&lt;div&gt;olmadığı için dik üçgen değil&lt;/div&gt;&lt;/div&gt;" style="text;html=1;align=center;verticalAlign=middle;resizable=0;points=[];autosize=1;strokeColor=none;fillColor=none;" vertex="1" parent="1">
          <mxGeometry x="570" y="505" width="170" height="70" as="geometry" />
        </mxCell>
        <mxCell id="VStNra3xH52tGC3e-W4a-24" value="ANALİZ-2:&lt;span style=&quot;white-space: pre;&quot;&gt;&#x9;&lt;/span&gt;x1&lt;span style=&quot;white-space: pre;&quot;&gt;&#x9;&lt;/span&gt;y1&lt;span style=&quot;white-space: pre;&quot;&gt;&#x9;&lt;/span&gt;x2&lt;span style=&quot;white-space: pre;&quot;&gt;&#x9;&lt;/span&gt;y2&lt;span style=&quot;white-space: pre;&quot;&gt;&#x9;&lt;/span&gt;x3&lt;span style=&quot;white-space: pre;&quot;&gt;&#x9;&lt;/span&gt;y3" style="text;html=1;align=center;verticalAlign=middle;resizable=0;points=[];autosize=1;strokeColor=none;fillColor=none;" vertex="1" parent="1">
          <mxGeometry x="495" y="610" width="250" height="30" as="geometry" />
        </mxCell>
        <mxCell id="VStNra3xH52tGC3e-W4a-25" value="0&lt;span style=&quot;white-space: pre;&quot;&gt;&#x9;&lt;/span&gt;0&lt;span style=&quot;white-space: pre;&quot;&gt;&#x9;&lt;/span&gt;3&lt;span style=&quot;white-space: pre;&quot;&gt;&#x9;&lt;/span&gt;4&lt;span style=&quot;white-space: pre;&quot;&gt;&#x9;&lt;/span&gt;3&lt;span style=&quot;white-space: pre;&quot;&gt;&#x9;&lt;/span&gt;0" style="text;html=1;align=center;verticalAlign=middle;resizable=0;points=[];autosize=1;strokeColor=none;fillColor=none;" vertex="1" parent="1">
          <mxGeometry x="580" y="640" width="160" height="30" as="geometry" />
        </mxCell>
        <mxCell id="VStNra3xH52tGC3e-W4a-26" value="ABkare: 25&lt;div&gt;BCkare: 16&lt;/div&gt;&lt;div&gt;ACkare: 9&lt;/div&gt;" style="text;html=1;align=center;verticalAlign=middle;resizable=0;points=[];autosize=1;strokeColor=none;fillColor=none;" vertex="1" parent="1">
          <mxGeometry x="490" y="675" width="80" height="60" as="geometry" />
        </mxCell>
        <mxCell id="VStNra3xH52tGC3e-W4a-27" value="9 = 16 + 25,&lt;div&gt;16 = 25 + 9&lt;/div&gt;&lt;div&gt;değil ancak&lt;/div&gt;&lt;div&gt;25 = 16 + 9&lt;br&gt;&lt;div&gt;&lt;div&gt;&lt;div&gt;olduğu için dik üçgen&lt;/div&gt;&lt;/div&gt;&lt;/div&gt;&lt;/div&gt;" style="text;html=1;align=center;verticalAlign=middle;resizable=0;points=[];autosize=1;strokeColor=none;fillColor=none;" vertex="1" parent="1">
          <mxGeometry x="590" y="675" width="140" height="90" as="geometry" />
        </mxCell>
        <mxCell id="VStNra3xH52tGC3e-W4a-28" value="ANALİZ-3:&lt;span style=&quot;white-space: pre;&quot;&gt;&#x9;&lt;/span&gt;x1&lt;span style=&quot;white-space: pre;&quot;&gt;&#x9;&lt;/span&gt;y1&lt;span style=&quot;white-space: pre;&quot;&gt;&#x9;&lt;/span&gt;x2&lt;span style=&quot;white-space: pre;&quot;&gt;&#x9;&lt;/span&gt;y2&lt;span style=&quot;white-space: pre;&quot;&gt;&#x9;&lt;/span&gt;x3&lt;span style=&quot;white-space: pre;&quot;&gt;&#x9;&lt;/span&gt;y3" style="text;html=1;align=center;verticalAlign=middle;resizable=0;points=[];autosize=1;strokeColor=none;fillColor=none;" vertex="1" parent="1">
          <mxGeometry x="497.5" y="800" width="250" height="30" as="geometry" />
        </mxCell>
        <mxCell id="VStNra3xH52tGC3e-W4a-29" value="2&lt;span style=&quot;white-space: pre;&quot;&gt;&#x9;&lt;/span&gt;1&lt;span style=&quot;white-space: pre;&quot;&gt;&#x9;&lt;/span&gt;1&lt;span style=&quot;white-space: pre;&quot;&gt;&#x9;&lt;/span&gt;4&lt;span style=&quot;white-space: pre;&quot;&gt;&#x9;&lt;/span&gt;8&lt;span style=&quot;white-space: pre;&quot;&gt;&#x9;&lt;/span&gt;0" style="text;html=1;align=center;verticalAlign=middle;resizable=0;points=[];autosize=1;strokeColor=none;fillColor=none;" vertex="1" parent="1">
          <mxGeometry x="582.5" y="830" width="160" height="30" as="geometry" />
        </mxCell>
        <mxCell id="VStNra3xH52tGC3e-W4a-30" value="ABkare: 10&lt;div&gt;BCkare: 65&lt;/div&gt;&lt;div&gt;ACkare: 37&lt;/div&gt;" style="text;html=1;align=center;verticalAlign=middle;resizable=0;points=[];autosize=1;strokeColor=none;fillColor=none;" vertex="1" parent="1">
          <mxGeometry x="492.5" y="865" width="80" height="60" as="geometry" />
        </mxCell>
        <mxCell id="VStNra3xH52tGC3e-W4a-31" value="10 = 65 + 37&lt;br&gt;&lt;div&gt;65 = 10 + 37&lt;/div&gt;&lt;div&gt;37 = 65 + 10&lt;br&gt;&lt;div&gt;olmadığı için dik üçgen değil&lt;/div&gt;&lt;/div&gt;" style="text;html=1;align=center;verticalAlign=middle;resizable=0;points=[];autosize=1;strokeColor=none;fillColor=none;" vertex="1" parent="1">
          <mxGeometry x="577.5" y="865" width="170" height="70" as="geometry" />
        </mxCell>
      </root>
    </mxGraphModel>
  </diagram>
</mxfile>
